<svg width="160" height="160" viewBox="0 0 160 160" fill="none" xmlns="http://www.w3.org/2000/svg">
<circle cx="80.0489" cy="79.7392" r="78.2088" fill="white" stroke="#126782" stroke-width="2.58223"/>
<mask id="mask0_3786_2319" style="mask-type:alpha" maskUnits="userSpaceOnUse" x="44" y="34" width="71" height="89">
<path d="M54.5002 122.516C54.0131 122.385 53.5291 122.255 53.042 122.125C48.0157 120.763 44.4259 116.118 44.4228 110.887C44.4104 95.749 44.4042 80.6111 44.4228 65.4732C44.4321 58.334 49.6911 52.2776 56.7776 51.1513C57.0289 51.111 57.274 51.0396 57.5471 50.9776V48.2938C56.6721 47.9339 55.8065 47.7043 55.0835 47.2513C53.7556 46.4167 53.1909 45.0887 53.1661 43.5436C53.1444 42.2033 53.1506 40.8629 53.1661 39.5226C53.194 36.7674 55.0525 34.9182 57.7984 34.9182C72.2537 34.9182 86.7058 34.9182 101.161 34.9182C103.904 34.9182 105.765 36.7643 105.793 39.5195C105.809 40.8877 105.821 42.256 105.79 43.6243C105.738 45.8551 104.348 47.5119 102.176 47.9897C101.931 48.0425 101.682 48.0828 101.412 48.1324V50.9683C102.216 51.1451 102.998 51.2847 103.761 51.4926C110.131 53.2363 114.531 58.9483 114.537 65.557C114.555 80.5521 114.546 95.5473 114.54 110.546C114.54 116.562 110.677 121.206 104.748 122.36C104.645 122.379 104.555 122.463 104.462 122.516H54.5002ZM47.4169 72.8886V104.967C47.7768 104.967 48.0839 104.967 48.3911 104.967C51.3852 104.967 54.3792 104.967 57.3733 104.97C57.7146 104.97 58.0621 104.979 58.391 105.06C59.0394 105.218 59.4024 105.659 59.4614 106.335C59.5172 107.012 59.2225 107.517 58.6144 107.772C58.2886 107.908 57.8946 107.939 57.5315 107.942C54.4816 107.955 51.4286 107.949 48.3787 107.949C48.0715 107.949 47.7675 107.949 47.3641 107.949C47.3641 108.917 47.3455 109.795 47.3672 110.67C47.5068 115.891 51.2145 119.587 56.4053 119.593C71.8007 119.612 87.1992 119.624 102.595 119.587C108.452 119.571 112.554 114.899 111.459 107.949C109.076 107.949 106.684 107.955 104.292 107.949C103.169 107.946 102.464 107.365 102.449 106.472C102.436 105.584 103.138 104.982 104.264 104.973C106.374 104.958 108.483 104.97 110.593 104.967C110.897 104.967 111.201 104.942 111.546 104.927V72.8917C111.164 72.8917 110.832 72.8917 110.497 72.8917C104.85 72.8917 99.2065 72.8917 93.5596 72.8917C93.2742 72.8917 92.9887 72.9103 92.7033 72.8824C91.9121 72.8079 91.3071 72.1625 91.3071 71.4148C91.3071 70.6546 91.8966 70.0434 92.7126 69.9783C92.9949 69.9534 93.2835 69.9628 93.5658 69.9628C99.2127 69.9628 104.856 69.9628 110.503 69.9628H111.58C111.58 68.368 111.633 66.8911 111.571 65.4174C111.288 58.6784 106.287 53.9065 99.5353 53.9065C86.135 53.9065 72.7346 53.9003 59.3342 53.9158C58.4561 53.9158 57.5595 53.9779 56.7031 54.164C51.4783 55.2841 47.8699 59.3703 47.4386 64.7255C47.3021 66.4412 47.4169 68.1756 47.4169 69.9628C47.8357 69.9628 48.1739 69.9628 48.5121 69.9628C52.9024 69.9628 57.2926 69.9565 61.686 69.9659C62.803 69.9659 63.3956 70.4964 63.3956 71.4241C63.3956 72.3394 62.7688 72.8886 61.6798 72.8917C58.6299 72.8979 55.5769 72.8917 52.527 72.8917C50.8453 72.8917 49.1668 72.8917 47.4076 72.8917L47.4169 72.8886ZM86.8144 45.1229C87.6894 45.1229 88.4806 45.1539 89.2686 45.0949C89.4238 45.0825 89.6627 44.7412 89.6782 44.5365C89.7309 43.857 89.6875 43.1682 89.703 42.4856C89.7247 41.378 90.2553 40.7481 91.152 40.7419C92.061 40.7357 92.635 41.4245 92.6443 42.5446C92.6505 43.3854 92.6443 44.2262 92.6443 45.0639H95.5484C95.5484 44.1238 95.536 43.2426 95.5515 42.3646C95.5701 41.3531 96.1503 40.7264 97.0253 40.7388C97.8847 40.7512 98.4556 41.4028 98.468 42.408C98.4773 43.283 98.468 44.1579 98.468 45.0918C99.5509 45.0918 100.547 45.1477 101.53 45.0732C102.349 45.0112 102.79 44.4651 102.799 43.6274C102.812 42.4298 102.809 41.2321 102.809 40.0345C102.809 38.207 102.427 37.8254 100.621 37.8254C86.5352 37.8254 72.4491 37.8254 58.3662 37.8254C58.0528 37.8254 57.7301 37.7975 57.4292 37.8564C56.7217 37.9961 56.2005 38.3839 56.185 39.1595C56.1571 40.6985 56.1602 42.2374 56.185 43.7763C56.1943 44.4558 56.5914 44.9708 57.2523 45.0236C58.3134 45.1073 59.3869 45.0453 60.5008 45.0453C60.5008 44.1331 60.4946 43.2799 60.5008 42.4266C60.5101 41.4121 61.0624 40.7636 61.9218 40.7388C62.8216 40.7109 63.4018 41.3562 63.4173 42.4266C63.4297 43.2985 63.4173 44.1703 63.4173 45.0732H66.3214C66.3214 44.1176 66.3028 43.2116 66.3276 42.3056C66.3524 41.3811 66.9667 40.745 67.792 40.7388C68.636 40.7326 69.2193 41.3314 69.2565 42.2901C69.2844 43.0317 69.2317 43.7763 69.2906 44.5116C69.3092 44.7257 69.5823 45.0794 69.7622 45.0949C70.5193 45.1601 71.2856 45.1229 72.1544 45.1229C72.1544 44.1021 72.1264 43.1682 72.1637 42.2374C72.1978 41.3997 72.778 40.8009 73.5289 40.7419C74.2394 40.6861 74.8816 41.1297 75.0398 41.8496C75.1236 42.2343 75.1205 42.6407 75.1298 43.0379C75.1422 43.708 75.1329 44.3782 75.1329 45.0701H77.9967C77.9967 44.0866 77.9594 43.1496 78.0091 42.2188C78.0494 41.4214 78.4869 40.8629 79.306 40.7543C80.0382 40.6581 80.5967 40.9963 80.8387 41.7037C80.9566 42.045 80.9659 42.4298 80.9752 42.7959C80.9939 43.5498 80.9814 44.3038 80.9814 45.067H83.839C83.839 44.161 83.8204 43.3109 83.8421 42.4608C83.87 41.3748 84.4409 40.7326 85.3314 40.7388C86.2125 40.745 86.7989 41.4152 86.8144 42.4732C86.8269 43.3233 86.8144 44.1703 86.8144 45.1198V45.1229ZM98.4432 48.1386H60.5504V50.9093H98.4401V48.1386H98.4432Z" fill="black"/>
<path d="M86.3375 71.8401C86.8432 73.0222 87.5258 73.984 87.6406 75.011C87.9726 77.9896 85.3508 80.0435 82.4374 79.3268C80.6813 78.8956 78.888 78.6287 77.1102 78.2874C77.0326 78.3743 76.9519 78.4581 76.8744 78.545C77.5259 81.3311 78.1775 84.1204 78.8383 86.947C79.6574 86.5933 80.4952 86.193 81.3608 85.8641C87.0976 83.6923 93.9297 85.1443 97.8887 89.5284C101.413 93.4315 102.322 98.0421 100.622 102.975C98.9312 107.874 95.391 110.986 90.2592 111.864C82.9059 113.121 75.9436 111.638 69.3194 108.324C68.885 108.107 68.3545 107.971 67.8735 107.986C64.1379 108.11 61.5255 105.659 61.389 101.917C61.3642 101.263 61.1873 100.577 60.9174 99.9781C59.1706 96.1184 59.2171 92.2308 60.7747 88.3649C63.7935 80.8751 66.8838 73.4132 69.9275 65.9327C70.3557 64.8808 71.0507 64.1734 72.1459 63.8632C74.8824 63.0906 77.6221 62.3274 80.3555 61.5362C81.6587 61.1577 82.7632 61.4183 83.7219 62.3801C85.0095 63.6739 86.3188 64.9429 87.5971 66.2491C88.9685 67.6484 88.9468 69.299 87.5537 70.7076C87.0945 71.173 86.5981 71.6043 86.3437 71.8401H86.3375ZM85.5959 68.4396C84.3425 67.1923 83.1014 65.9823 81.8914 64.7443C81.5718 64.4186 81.3018 64.3472 80.852 64.4775C78.3698 65.2035 75.8691 65.8675 73.3932 66.6059C73.0519 66.7083 72.6702 67.062 72.5337 67.394C69.5024 74.7225 66.4929 82.0634 63.5081 89.4105C62.3043 92.3766 62.0747 95.4172 63.4616 98.3616C64.0759 99.6648 64.4296 100.909 64.4203 102.342C64.411 104.036 66.1174 105.386 67.7712 105.011C68.6864 104.803 69.4156 104.995 70.2005 105.417C76.2817 108.659 82.7632 110.003 89.5922 108.979C93.9607 108.324 96.8586 105.616 98.0252 101.374C99.1887 97.133 98.0562 93.4129 94.665 90.5305C92.4776 88.6689 89.8218 87.8964 86.9952 87.8405C84.2308 87.7847 81.6307 88.4269 79.4092 90.1985C78.9221 90.5864 78.708 91.0549 78.5653 91.6909C78.2923 92.9289 77.8672 94.1451 77.3801 95.3179C77.0233 96.1805 76.1328 96.4411 75.3882 96.0719C74.6466 95.7058 74.4015 94.8805 74.7645 94.0303C74.9848 93.5091 75.2299 92.9878 75.3789 92.4449C76.1204 89.7642 75.897 87.0897 75.2765 84.4214C74.7832 82.2961 73.8679 80.2576 74.0044 78.0082C74.0571 77.1519 74.0168 76.3421 73.5545 75.5447C73.2691 75.0545 73.207 74.406 73.1543 73.8196C73.0612 72.7678 73.5669 72.1287 74.4388 72.0573C75.3509 71.9828 75.9591 72.5816 76.0459 73.6397C76.1421 74.8218 76.8154 75.4516 77.9975 75.6223C79.735 75.8736 81.4663 76.1745 83.1945 76.4848C84.0012 76.6275 84.6744 76.2738 84.7396 75.5571C84.8048 74.8466 84.3549 74.4929 83.7436 74.2509C82.003 73.559 80.4548 72.563 79.1176 71.2475C78.3109 70.4501 78.2054 69.5814 78.8321 68.9298C79.4744 68.2627 80.2656 68.3434 81.1622 69.1129C81.8417 69.6962 82.5615 70.2329 83.1541 70.7014C84.026 69.8947 84.7706 69.206 85.5897 68.4489L85.5959 68.4396Z" fill="black"/>
<path d="M58.8625 56.8167C58.9215 56.8229 59.2131 56.8042 59.4831 56.8787C60.1563 57.0649 60.5845 57.7443 60.4759 58.4673C60.3611 59.2429 59.8802 59.6463 59.0983 59.7269C55.4806 60.0931 53.647 61.874 53.2405 65.4048C53.1164 66.4783 52.5114 67.1082 51.6582 67.0523C50.7584 66.9903 50.2092 66.2425 50.2682 65.1535C50.5133 60.6391 54.2799 56.888 58.8656 56.8198L58.8625 56.8167Z" fill="black"/>
<path d="M83.0192 104.878C81.2073 104.909 79.0851 104.465 77.0776 103.494C76.122 103.031 75.7869 102.237 76.1934 101.418C76.5874 100.624 77.3817 100.394 78.3094 100.835C80.8319 102.029 83.5094 102.017 86.1777 101.722C87.9773 101.524 89.7458 101.061 91.5236 100.686C92.5754 100.466 93.3014 100.801 93.559 101.694C93.801 102.547 93.3356 103.221 92.2714 103.546C89.3952 104.425 86.4384 104.775 83.0285 104.874L83.0192 104.878Z" fill="black"/>
<path d="M64.9996 93.3474C65.2882 92.1963 65.5053 91.0825 65.859 90.009C66.1569 89.1061 66.9636 88.7586 67.7641 89.0347C68.5304 89.3015 68.9307 90.1393 68.6018 91.0018C68.003 92.5687 68.003 94.0921 68.6204 95.6558C68.9617 96.5214 68.5646 97.3219 67.7734 97.6167C67.0225 97.8959 66.2034 97.5701 65.9149 96.72C65.5426 95.6279 65.3037 94.4861 65.0027 93.3443L64.9996 93.3474Z" fill="black"/>
</mask>
<g mask="url(#mask0_3786_2319)">
<rect x="30.6602" y="25.3549" width="95.7286" height="119.661" fill="#126782"/>
</g>
</svg>
