<svg width="160" height="160" viewBox="0 0 160 160" fill="none" xmlns="http://www.w3.org/2000/svg">
<circle cx="80.2002" cy="79.7392" r="78.2088" fill="white" stroke="#6B705C" stroke-width="2.58223"/>
<mask id="mask0_3786_3012" style="mask-type:alpha" maskUnits="userSpaceOnUse" x="39" y="39" width="84" height="83">
<path d="M119.231 91.5252C118.859 91.5252 118.548 91.5252 118.241 91.5252C115.01 91.5252 111.775 91.5288 108.544 91.5252C107.583 91.5252 107.013 91.0125 106.995 90.1893C106.977 89.3228 107.554 88.7921 108.569 88.7921C112.544 88.7848 116.523 88.7848 120.498 88.7921C121.621 88.7921 122.087 89.2831 122.094 90.4276C122.152 100.021 114.714 108.83 105.211 110.408C104.009 110.607 102.788 110.711 101.492 110.867C101.492 112.69 101.492 114.542 101.492 116.394C101.492 117.597 101.492 118.795 101.492 119.998C101.489 121.297 101.048 121.738 99.7376 121.738C91.7259 121.738 83.7142 121.738 75.7025 121.738C71.1533 121.738 66.604 121.738 62.0548 121.738C60.737 121.738 60.2965 121.301 60.2929 120.008C60.2929 118.348 60.2857 116.69 60.2929 115.03C60.3001 114.076 60.8164 113.51 61.6504 113.506C62.4881 113.502 63.0152 114.066 63.026 115.011C63.0405 116.297 63.026 117.582 63.026 118.933H98.6869V110.751C98.3403 110.751 98.0046 110.751 97.6724 110.751C85.227 110.751 72.7816 110.762 60.3362 110.748C50.8117 110.737 42.6484 104.418 40.3196 95.1826C39.9188 93.594 39.8394 91.9151 39.7058 90.2724C39.6264 89.3047 40.1968 88.7993 41.1717 88.7921C42.9625 88.7776 44.7569 88.7884 46.3563 88.7884C46.1289 87.3117 45.7498 85.9 45.7281 84.4775C45.6884 82.0946 46.8004 80.1088 48.4865 78.4985C50.1257 76.9316 52.7217 77.1121 54.2308 78.8668C56.6463 81.6721 57.4442 84.7952 55.8808 88.3155C55.8267 88.4418 55.7906 88.5718 55.7292 88.7523H62.0151C61.6288 86.9724 61.5782 85.2285 61.979 83.4774C62.4664 81.3616 63.4448 79.5239 64.9396 77.9606C66.8062 76.0073 69.6766 75.8267 71.6623 77.5309C73.6337 79.2206 73.872 82.1162 72.2184 84.25C70.9258 85.9145 71.0052 86.0986 72.1606 87.8172C72.7094 88.6332 73.2798 88.8137 74.1789 88.8065C79.4719 88.7668 84.7648 88.7884 90.0578 88.7884C90.3719 88.7884 90.6825 88.7884 91.1879 88.7884C90.8738 88.5357 90.6861 88.3985 90.5128 88.2433C89.2996 87.1601 88.0396 86.1275 86.8986 84.9758C86.1441 84.2139 86.2199 83.3366 86.8806 82.7986C87.5738 82.2318 88.2237 82.4701 89.0397 83.2102C90.4261 84.4703 91.8884 85.6617 93.4012 86.7666C94.0872 87.2684 95.1306 87.9183 95.8202 87.254C96.5242 86.5752 95.8707 85.5246 95.3761 84.8458C94.2532 83.3077 92.9679 81.896 91.7945 80.394C91.4695 79.9788 91.0904 79.4156 91.1229 78.9462C91.1915 77.8775 92.5021 77.372 93.3253 78.1447C94.571 79.3109 95.6649 80.6323 96.8167 81.896C96.9828 82.0801 97.1055 82.304 97.4052 82.4845C97.3727 82.0874 97.3799 81.6794 97.2969 81.293C96.517 77.6103 94.2966 75.3032 90.6427 74.3573C87.9999 73.6749 85.3389 73.7146 82.5697 73.9998C82.2447 77.5634 82.1833 81.015 83.7828 84.2861C83.8694 84.4667 83.9741 84.64 84.05 84.8241C84.3605 85.5787 84.1222 86.3369 83.4759 86.6763C82.8007 87.0337 81.9812 86.8713 81.6382 86.1167C81.0316 84.77 80.4286 83.3944 80.082 81.9718C79.3563 78.9932 79.4682 75.9603 79.9051 72.9383C80.0206 72.1404 80.36 71.5375 81.2518 71.3967C85.3497 70.7432 89.408 70.7504 93.3109 72.3534C98.6364 74.5414 101.532 80.7767 99.752 86.16C99.4632 87.041 98.9613 87.8497 98.51 88.7921C99.6943 88.7921 100.904 88.7921 102.113 88.7921C102.427 88.7921 102.745 88.7704 103.056 88.8065C103.749 88.8895 104.229 89.4672 104.225 90.1677C104.225 90.8645 103.738 91.4349 103.045 91.518C102.763 91.5541 102.474 91.5324 102.189 91.5324C82.678 91.5324 63.1632 91.5324 43.6521 91.5324C43.3127 91.5324 42.9733 91.5324 42.374 91.5324C42.7206 93.0344 42.9336 94.4678 43.3813 95.8217C45.7606 102.985 52.4075 107.946 59.9679 107.989C73.9009 108.069 87.8338 108.079 101.767 107.989C110.537 107.931 117.945 101.302 119.151 92.6986C119.202 92.3412 119.195 91.9729 119.22 91.536L119.231 91.5252ZM69.3372 88.7559C68.0879 86.4597 68.254 84.4378 69.9835 82.5964C70.099 82.4737 70.1856 82.3184 70.2651 82.1704C70.7525 81.2497 70.5756 80.2388 69.8174 79.6142C69.0303 78.9643 67.9724 78.9932 67.1564 79.6864C64.8457 81.6469 63.8239 85.8964 64.9937 88.7596H69.3372V88.7559ZM48.4107 85.2177C48.5588 85.6834 48.7501 86.5752 49.1292 87.384C49.5119 88.1963 50.1257 88.8029 51.1764 88.8029C52.2306 88.8029 52.783 88.1638 53.238 87.384C54.4403 85.3224 53.9059 82.2426 52.1007 80.6395C51.5591 80.1593 50.7431 80.1305 50.2485 80.654C49.1653 81.8093 48.4938 83.1633 48.4143 85.2177H48.4107Z" fill="black"/>
<path d="M66.4748 39.2378C68.0164 39.3967 69.4931 39.5411 70.9662 39.7072C71.6667 39.7866 72.1541 40.2018 72.2624 40.8914C72.887 44.8052 72.9303 48.7009 71.5475 52.4811C69.587 57.8391 63.9582 60.9333 58.4233 59.7707C54.376 58.9186 51.827 55.4634 51.9967 51.0658C52.2313 45.0615 56.026 40.8047 62.1783 39.7216C63.608 39.4689 65.0667 39.393 66.4712 39.2414L66.4748 39.2378ZM54.9284 50.9214C55.0872 50.6939 55.2244 50.4484 55.4086 50.2462C56.582 48.9645 57.7374 47.6647 58.9541 46.4299C59.4198 45.9569 60.0517 45.9894 60.6077 46.383C61.1457 46.7621 61.2937 47.3289 61.0951 47.8994C60.9724 48.246 60.6474 48.5493 60.3586 48.8092C58.658 50.3365 57.2391 52.0803 56.387 54.2141C56.2209 54.6294 56.3798 55.1709 56.387 55.6547C56.8492 55.6439 57.3149 55.6583 57.7735 55.6186C57.9612 55.6006 58.1417 55.4706 58.3223 55.3839C60.225 54.456 61.8461 53.1671 63.2253 51.564C63.9113 50.7661 64.7237 50.5892 65.3736 51.1236C66.0415 51.6687 66.1173 52.5317 65.3555 53.3007C64.1929 54.4705 62.9112 55.5248 61.6764 56.6223C61.4851 56.792 61.2612 56.922 60.911 57.1675C64.6731 57.1459 67.8431 54.7954 69.0418 51.2644C69.9806 48.5023 70.0564 45.6609 69.7134 42.7941C69.6881 42.5956 69.3523 42.2959 69.1393 42.2778C67.9731 42.1803 66.7961 42.0756 65.6299 42.1226C63.3047 42.2165 61.0193 42.5414 58.9577 43.7509C56.239 45.3468 55.1161 47.8597 54.9248 50.9214H54.9284Z" fill="black"/>
<path d="M114.088 59.0157C116.323 57.1599 117.186 53.1559 115.988 50.0906C114.738 46.8953 112.388 44.5882 109.705 42.4002C108.832 43.2017 107.987 43.96 107.16 44.7398C106.351 45.5052 105.513 45.6027 104.911 44.9673C104.326 44.3535 104.391 43.5195 105.189 42.7938C106.348 41.7359 107.557 40.7286 108.759 39.7176C109.294 39.2699 109.922 39.1544 110.5 39.5732C114.24 42.2883 117.461 45.4583 118.88 50.0112C120.558 55.3908 117.36 61.915 112.272 63.6552C108.954 64.7889 105.434 63.7022 102.903 60.5394C99.9497 56.8494 99.2348 52.766 101.199 48.3503C101.697 47.2311 102.416 46.8411 103.228 47.213C104.077 47.6029 104.257 48.3395 103.737 49.466C102.195 52.8129 102.853 55.8529 104.986 58.698C105.037 58.7666 105.098 58.8316 105.16 58.8858C105.199 58.9219 105.257 58.9435 105.369 59.0121C105.257 58.1817 105.12 57.3982 105.048 56.6075C104.976 55.8132 104.947 55.0117 104.939 54.2138C104.936 53.7877 104.968 53.3545 105.051 52.9357C105.225 52.0547 105.831 51.6034 106.622 51.7153C107.398 51.8236 107.893 52.5421 107.785 53.4303C107.528 55.5677 107.846 57.6437 108.517 59.6692C108.738 60.3372 108.969 61.2976 109.738 61.2001C110.207 61.1387 110.716 60.2469 110.936 59.6331C111.659 57.6257 111.94 55.5388 111.68 53.4014C111.579 52.5566 112.056 51.8561 112.792 51.7225C113.597 51.5781 114.395 52.0583 114.399 52.9681C114.399 54.8998 114.211 56.8278 114.099 58.7594C114.096 58.8424 114.088 58.9219 114.085 59.0157H114.088Z" fill="black"/>
<path d="M80.8791 94.2769C91.8334 94.2769 102.788 94.2769 113.742 94.2769C114.793 94.2769 115.334 94.6668 115.432 95.4611C115.529 96.2699 115.009 96.927 114.197 97.0064C113.998 97.0245 113.796 97.0137 113.597 97.0137C91.8045 97.0137 70.0079 97.0137 48.215 97.0137C48.0164 97.0137 47.8142 97.0245 47.6156 97.0064C46.8646 96.9414 46.3483 96.3854 46.3411 95.6525C46.3339 94.9196 46.8466 94.3455 47.5903 94.2769C47.8467 94.2516 48.103 94.2697 48.363 94.2697C59.2017 94.2697 70.044 94.2697 80.8828 94.2697L80.8791 94.2769Z" fill="black"/>
<path d="M90.5185 51.9035C90.4787 54.9399 89.3848 57.655 87.1932 59.9043C85.3013 61.8432 82.449 61.9479 80.4777 60.186C78.5424 58.4601 78.3619 55.532 80.0588 53.4632C81.2611 51.9974 81.2575 51.5244 80.0588 50.0513C78.3763 47.9825 78.5569 45.0291 80.4704 43.3177C82.4237 41.5702 85.3157 41.6677 87.1932 43.5993C89.4064 45.8739 90.5004 48.6179 90.5185 51.9035ZM87.76 51.7591C87.6806 49.3833 86.9043 47.3218 85.2724 45.6068C84.7308 45.0363 84.0845 44.7114 83.2758 44.9027C81.6799 45.2818 81.2286 46.9715 82.2396 48.3652C82.81 49.1523 83.3552 50.0441 83.5899 50.9684C83.9726 52.5028 83.4166 53.8748 82.3587 55.0591C81.4561 56.0736 81.4742 57.3517 82.3298 58.1171C83.2216 58.9187 84.4745 58.767 85.424 57.7272C86.9766 56.0303 87.6914 54.0012 87.76 51.7518V51.7591Z" fill="black"/>
<path d="M119.348 73.3355C119.293 79.6647 113.6 85.0011 107.274 84.6508C104.877 84.5173 102.887 82.3762 102.876 79.9066C102.862 77.3757 104.862 75.2202 107.375 75.0577C109.094 74.9458 109.646 74.4006 109.751 72.7037C109.913 70.0897 112.155 68.1003 114.838 68.1906C117.448 68.2808 119.376 70.4796 119.351 73.3355H119.348ZM116.593 73.285C116.625 72.2704 116.17 71.4761 115.358 71.1223C113.968 70.5157 112.668 71.5014 112.455 73.1731C112.343 74.0504 112.101 74.9855 111.654 75.7329C110.823 77.1193 109.466 77.744 107.834 77.8053C106.505 77.8559 105.559 78.8235 105.628 79.9536C105.7 81.1667 106.725 81.9755 108.09 81.896C112.744 81.6325 116.448 77.8812 116.593 73.285Z" fill="black"/>
<path d="M53.2688 73.6636C51.2253 73.5805 48.8929 72.7682 46.8566 71.1471C46.0839 70.5333 45.9287 69.7029 46.4342 69.0638C46.9613 68.3995 47.7375 68.3381 48.5535 68.9735C50.1205 70.1867 51.8896 70.8149 53.8537 70.916C54.7203 70.9593 55.4207 70.6308 55.8648 69.8617C56.2547 69.1866 56.2511 68.5006 55.8323 67.8326C55.399 67.1466 54.7275 66.8108 53.9512 66.8181C51.3517 66.8397 49.2467 64.5687 49.2684 62.11C49.2792 60.7958 48.2141 59.8534 47.0913 59.9509C45.907 60.0556 45.0874 61.0521 45.1994 62.3663C45.2644 63.1281 45.4304 63.8863 45.6182 64.6337C45.8926 65.7349 45.6182 66.4751 44.7553 66.7314C43.9429 66.9769 43.2641 66.4823 42.9392 65.3811C42.4915 63.8611 42.1882 62.3194 42.5998 60.7452C43.21 58.4237 45.3546 56.9831 47.7953 57.2105C49.9616 57.4127 51.886 59.4599 52.0304 61.7128C52.1387 63.417 52.6875 63.9586 54.4061 64.0705C57.0165 64.2402 59.0059 66.5003 58.9012 69.1793C58.8001 71.7536 56.6013 73.6961 53.2652 73.6636H53.2688Z" fill="black"/>
<path d="M102.37 66.4539C102.377 70.2702 99.305 72.4221 95.7089 71.3317C91.268 69.9886 89.5891 65.7788 89.8418 62.4896C89.9863 60.641 91.7337 59.0127 93.7087 59.0199C98.0016 59.0344 101.37 61.5473 102.273 65.508C102.359 65.8943 102.356 66.3023 102.37 66.4539ZM99.6155 66.5514C99.601 66.4576 99.5794 66.1976 99.518 65.9521C98.9511 63.6305 96.8643 61.9769 94.3189 61.8217C92.9902 61.7386 92.4017 62.3777 92.6003 63.6883C92.64 63.941 92.6869 64.1938 92.7411 64.4465C93.2177 66.75 94.9688 68.4975 97.1314 68.8188C98.5793 69.0354 99.6191 68.1545 99.6191 66.555L99.6155 66.5514Z" fill="black"/>
<path d="M64.9087 68.1001C64.9087 64.6521 67.6455 61.464 71.3462 60.6588C72.0936 60.4964 72.8771 60.3628 73.6317 60.3989C75.9063 60.5144 77.5129 62.3197 77.4732 64.6087C77.401 68.7572 74.6751 72.133 70.7685 72.9057C67.6093 73.5303 64.9123 71.317 64.9087 68.1001ZM73.1876 63.1826C70.57 63.2295 68.317 64.9589 67.7465 67.3527C67.2916 69.2663 68.512 70.5444 70.4255 70.122C73.4692 69.4468 74.6462 66.7823 74.7004 64.4318C74.7184 63.6267 74.0902 63.1681 73.184 63.1826H73.1876Z" fill="black"/>
</mask>
<g mask="url(#mask0_3786_3012)">
<rect x="34.0247" y="25.8579" width="92.253" height="115.316" fill="#6B705C"/>
</g>
</svg>
